<svg xmlns="http://www.w3.org/2000/svg" height="600pt" version="1.1" viewBox="-25 0 600 600.40161" width="600pt">
<g id="surface1">
<path d="M 550.199219 450.402344 C 550.175781 407.8125 531.988281 367.257812 500.199219 338.914062 L 500.199219 290.402344 C 500.140625 240.71875 459.882812 200.460938 410.199219 200.402344 L 376.5 200.402344 C 404.640625 141.5625 388.417969 71.085938 337.386719 30.464844 C 286.359375 -10.15625 214.042969 -10.15625 163.011719 30.464844 C 111.984375 71.085938 95.761719 141.5625 123.902344 200.402344 L 90.199219 200.402344 C 40.519531 200.460938 0.257812 240.71875 0.199219 290.402344 L 0.199219 590.402344 C 0.199219 595.925781 4.679688 600.402344 10.199219 600.402344 L 490.199219 600.402344 C 495.722656 600.402344 500.199219 595.925781 500.199219 590.402344 L 500.199219 561.890625 C 531.988281 533.546875 550.175781 492.988281 550.199219 450.402344 Z M 530.199219 450.402344 C 530.199219 522.199219 471.996094 580.402344 400.199219 580.402344 C 328.402344 580.402344 270.199219 522.199219 270.199219 450.402344 C 270.199219 378.605469 328.402344 320.402344 400.199219 320.402344 C 471.964844 320.484375 530.117188 378.640625 530.199219 450.402344 Z M 250.199219 20.402344 C 316.476562 20.402344 370.199219 74.128906 370.199219 140.402344 C 370.199219 206.675781 316.476562 260.402344 250.199219 260.402344 C 183.925781 260.402344 130.199219 206.675781 130.199219 140.402344 C 130.273438 74.15625 183.957031 20.476562 250.199219 20.402344 Z M 20.199219 580.402344 L 20.199219 290.402344 C 20.246094 251.757812 51.558594 220.445312 90.199219 220.402344 L 135.46875 220.402344 C 161.578125 257.988281 204.4375 280.402344 250.199219 280.402344 C 295.960938 280.402344 338.824219 257.988281 364.933594 220.402344 L 410.199219 220.402344 C 448.84375 220.445312 480.15625 251.757812 480.199219 290.402344 L 480.199219 323.742188 C 434.292969 294.628906 376.222656 292.671875 328.453125 318.613281 C 280.683594 344.558594 250.71875 394.34375 250.140625 448.699219 C 249.570312 503.054688 278.480469 553.453125 325.6875 580.402344 Z M 480.199219 580.402344 L 474.710938 580.402344 C 476.574219 579.332031 478.390625 578.210938 480.199219 577.0625 Z M 480.199219 580.402344 " style=" stroke:none;fill-rule:nonzero;fill:rgb(0%,0%,0%);fill-opacity:1;" />
<path d="M 410.199219 350.402344 L 390.199219 350.402344 L 390.199219 440.402344 L 300.199219 440.402344 L 300.199219 460.402344 L 390.199219 460.402344 L 390.199219 540.402344 L 410.199219 540.402344 L 410.199219 460.402344 L 500.199219 460.402344 L 500.199219 440.402344 L 410.199219 440.402344 Z M 410.199219 350.402344 " style=" stroke:none;fill-rule:nonzero;fill:rgb(0%,0%,0%);fill-opacity:1;" />
</g>
</svg>